<?xml version="1.0" encoding="UTF-8" standalone="no"?>
<svg
   xmlns:dc="http://purl.org/dc/elements/1.1/"
   xmlns:cc="http://creativecommons.org/ns#"
   xmlns:rdf="http://www.w3.org/1999/02/22-rdf-syntax-ns#"
   xmlns:svg="http://www.w3.org/2000/svg"
   xmlns="http://www.w3.org/2000/svg"
   xmlns:sodipodi="http://sodipodi.sourceforge.net/DTD/sodipodi-0.dtd"
   xmlns:inkscape="http://www.inkscape.org/namespaces/inkscape"
   inkscape:version="1.0 (4035a4fb49, 2020-05-01)"
   sodipodi:docname="full_logo.svg"
   id="svg8"
   version="1.1"
   viewBox="0 0 206.6189 65.685051"
   height="65.685051mm"
   width="206.6189mm">
  <defs
     id="defs2" />
  <sodipodi:namedview
     inkscape:pagecheckerboard="true"
     inkscape:window-maximized="1"
     inkscape:window-y="-8"
     inkscape:window-x="-8"
     inkscape:window-height="2107"
     inkscape:window-width="3840"
     showgrid="false"
     inkscape:document-rotation="0"
     inkscape:current-layer="layer1"
     inkscape:document-units="px"
     inkscape:cy="311.90032"
     inkscape:cx="438.30518"
     inkscape:zoom="1"
     inkscape:pageshadow="2"
     inkscape:pageopacity="0.0"
     borderopacity="1.0"
     bordercolor="#666666"
     pagecolor="#ffffff"
     id="base"
     fit-margin-top="0"
     fit-margin-left="0"
     fit-margin-right="0"
     fit-margin-bottom="0" />
  <metadata
     id="metadata5">
    <rdf:RDF>
      <cc:Work
         rdf:about="">
        <dc:format>image/svg+xml</dc:format>
        <dc:type
           rdf:resource="http://purl.org/dc/dcmitype/StillImage" />
        <dc:title />
      </cc:Work>
    </rdf:RDF>
  </metadata>
  <g
     transform="translate(-3.0200023,-3.0200032)"
     id="layer1"
     inkscape:groupmode="layer"
     inkscape:label="Layer 1">
    <g
       inkscape:export-ydpi="66.206894"
       inkscape:export-xdpi="66.206894"
       inkscape:export-filename="C:\Users\Tahar\Downloads/liot_logo_square.png"
       id="g859"
       transform="matrix(0.57070913,0,0,0.57070913,3.0200024,3.0200033)">
      <path
         id="rect833"
         style="fill:#ea2027;fill-opacity:1;stroke:#fe00fe;stroke-width:0"
         d="M 20,0 C 8.9200006,0 0,8.9200006 0,20 v 260 c 0,11.08 8.9200006,20 20,20 h 90 V 265 H 39.599609 C 37.051211,265 35,262.94879 35,260.40039 V 39.599609 C 35,37.051211 37.051211,35 39.599609,35 H 260.40039 C 262.94879,35 265,37.051211 265,39.599609 V 260.40039 C 265,262.94879 262.94879,265 260.40039,265 H 190 v 35 h 90 c 11.08,0 20,-8.92 20,-20 V 20 C 300,8.9200006 291.08,0 280,0 Z"
         transform="scale(0.26458333)" />
      <path
         d="m 109.80212,115.09375 c 2.93158,0 5.29167,-2.36009 5.29167,-5.29167 V 41.010417 c 0,-2.931583 -2.36009,-5.291667 -5.29167,-5.291667 H 85.989583 v 9.260417 H 104.6164 c 0.67427,0 1.21698,0.542716 1.21698,1.21698 v 58.420203 c 0,0.67426 -0.54271,1.21698 -1.21698,1.21698 H 46.196147 c -0.674265,0 -1.216981,-0.54272 -1.216981,-1.21698 V 46.196147 c 0,-0.674264 0.542716,-1.21698 1.216981,-1.21698 H 64.822916 V 35.71875 h -23.8125 c -2.931583,0 -5.291666,2.360084 -5.291666,5.291667 v 68.791663 c 0,2.93158 2.360083,5.29167 5.291666,5.29167 z"
         style="fill:#ea2027;fill-opacity:1;stroke:#fe00fe;stroke-width:0"
         id="path851" />
    </g>
    <text
       id="text855"
       y="58.769356"
       x="72.854233"
       style="font-style:normal;font-variant:normal;font-weight:normal;font-stretch:normal;font-size:64.0016px;line-height:1.25;font-family:'Segoe MDL2 Assets';-inkscape-font-specification:'Segoe MDL2 Assets';letter-spacing:0px;word-spacing:0px;fill:#1b1424;fill-opacity:1;stroke:none;stroke-width:0.250005"
       xml:space="preserve"><tspan
         style="font-style:normal;font-variant:normal;font-weight:bold;font-stretch:normal;font-size:64.0016px;font-family:'Trebuchet MS';-inkscape-font-specification:'Trebuchet MS Bold';fill:#1b1424;fill-opacity:1;stroke-width:0.250005"
         y="58.769356"
         x="72.854233"
         id="tspan853"
         sodipodi:role="line">LIOT</tspan></text>
  </g>
</svg>
